<svg width="1080" height="1080" viewBox="0 0 1080 1080" fill="none" xmlns="http://www.w3.org/2000/svg">
<rect width="1080" height="1080" fill="#FAFAFA"/>
<path d="M387.045 468.364C385.273 461.136 382.477 454.795 378.659 449.341C374.841 443.75 370.068 439.045 364.341 435.227C358.75 431.273 352.205 428.341 344.705 426.432C337.341 424.386 329.227 423.364 320.364 423.364C301.273 423.364 284.977 427.932 271.477 437.068C258.114 446.205 247.886 459.364 240.795 476.545C233.841 493.727 230.364 514.455 230.364 538.727C230.364 563.273 233.705 584.273 240.386 601.727C247.068 619.182 257.023 632.545 270.25 641.818C283.477 651.091 299.909 655.727 319.545 655.727C336.864 655.727 351.25 653.205 362.705 648.159C374.295 643.114 382.955 635.955 388.682 626.682C394.409 617.409 397.273 606.5 397.273 593.955L416.909 596H321.182V515H506.909V573.091C506.909 611.273 498.795 643.932 482.568 671.068C466.477 698.068 444.25 718.795 415.886 733.25C387.659 747.568 355.273 754.727 318.727 754.727C277.955 754.727 242.159 746.068 211.341 728.75C180.523 711.432 156.455 686.75 139.136 654.705C121.955 622.659 113.364 584.545 113.364 540.364C113.364 505.727 118.614 475.045 129.114 448.318C139.75 421.591 154.477 399.023 173.295 380.614C192.114 362.068 213.864 348.091 238.545 338.682C263.227 329.136 289.682 324.364 317.909 324.364C342.727 324.364 365.773 327.909 387.045 335C408.455 341.955 427.341 351.909 443.705 364.864C460.205 377.682 473.5 392.886 483.591 410.477C493.682 428.068 499.818 447.364 502 468.364H387.045ZM721.938 593.545H810.301L842.21 633.636L896.21 695L966.574 780.091H865.938L816.028 722L782.483 673.727L721.938 593.545ZM965.756 539.545C965.756 586.182 956.688 625.523 938.551 657.568C920.415 689.477 895.938 713.682 865.119 730.182C834.301 746.545 799.938 754.727 762.028 754.727C723.847 754.727 689.347 746.477 658.528 729.977C627.847 713.341 603.438 689.068 585.301 657.159C567.301 625.114 558.301 585.909 558.301 539.545C558.301 492.909 567.301 453.636 585.301 421.727C603.438 389.682 627.847 365.477 658.528 349.114C689.347 332.614 723.847 324.364 762.028 324.364C799.938 324.364 834.301 332.614 865.119 349.114C895.938 365.477 920.415 389.682 938.551 421.727C956.688 453.636 965.756 492.909 965.756 539.545ZM848.756 539.545C848.756 514.455 845.415 493.318 838.733 476.136C832.188 458.818 822.438 445.727 809.483 436.864C796.665 427.864 780.847 423.364 762.028 423.364C743.21 423.364 727.324 427.864 714.369 436.864C701.551 445.727 691.801 458.818 685.119 476.136C678.574 493.318 675.301 514.455 675.301 539.545C675.301 564.636 678.574 585.841 685.119 603.159C691.801 620.341 701.551 633.432 714.369 642.432C727.324 651.295 743.21 655.727 762.028 655.727C780.847 655.727 796.665 651.295 809.483 642.432C822.438 633.432 832.188 620.341 838.733 603.159C845.415 585.841 848.756 564.636 848.756 539.545Z" fill="#1B1B1B"/>
</svg>
